<svg xmlns="http://www.w3.org/2000/svg" xmlns:xlink="http://www.w3.org/1999/xlink" width="111.5" height="75" viewBox="0 0 111.5 75">
  <defs>
    <clipPath id="clip-bicycle">
      <rect width="111.5" height="75"/>
    </clipPath>
  </defs>
  <g id="bicycle" clip-path="url(#clip-bicycle)">
    <g id="Group_360" data-name="Group 360" transform="translate(-663.915 -492.023)">
      <path id="Path_1230" data-name="Path 1230" d="M1173.672,611.7h.139a.952.952,0,0,0,.952-.952V606.5h1.274a7,7,0,0,0,2.043-.287c1.618-.594,2.548-2.129,2.548-4.361,0-2.846-1.537-4.484-4.247-4.484h-2.709a.952.952,0,0,0-.952.952v12.428A.952.952,0,0,0,1173.672,611.7Zm1.091-12.366h1.6c1.416,0,2.164.86,2.164,2.559s-.748,2.641-2.184,2.641h-1.578Z" transform="translate(-457.009 -92.214)" fill="#42413f"/>
      <path id="Path_1231" data-name="Path 1231" d="M1018.453,524.65h17.2a3.731,3.731,0,0,0,3.726-3.726v-17.2a3.731,3.731,0,0,0-3.726-3.726h-17.2a3.73,3.73,0,0,0-3.726,3.726v17.2A3.73,3.73,0,0,0,1018.453,524.65Zm-2.006-20.924a2.009,2.009,0,0,1,2.006-2.006h17.2a2.009,2.009,0,0,1,2.006,2.006v17.2a2.009,2.009,0,0,1-2.006,2.006h-17.2a2.009,2.009,0,0,1-2.006-2.006Z" transform="translate(-307.387 0)" fill="#42413f"/>
      <path id="Path_1232" data-name="Path 1232" d="M738.3,1049.573a10.836,10.836,0,0,0-6.792,2.386l-2.544-2.716,1.339-3.683h1.249a.86.86,0,1,0,0-1.72h-4.095a.86.86,0,1,0,0,1.72h1.016l-5.107,14.045h-.008a15.972,15.972,0,0,0-2.839-7.4,13.06,13.06,0,0,0-5.953-5.048c.179-1.837.23-3.64.23-5.327a.86.86,0,0,0-.86-.86H708.2a3.726,3.726,0,1,0,0,7.453.86.86,0,1,0,0-1.72,2.006,2.006,0,0,1,0-4.013h4.868a48.507,48.507,0,0,1-.276,4.857s0,.007,0,.011a.853.853,0,0,0-.022.218c-.1.872-.241,1.747-.419,2.615a10.858,10.858,0,0,0-9.577.634,8.019,8.019,0,0,0-12.628,6.569v12.9a.86.86,0,0,0,.86.86h4.3a.86.86,0,0,0,.86-.86v-12.9a1.991,1.991,0,0,1,2.293-1.983,10.859,10.859,0,0,0,1.72,12.207v2.676a.86.86,0,0,0,.86.86h4.3a.856.856,0,0,0,.6-.242,10.888,10.888,0,0,0,8.006-19.9c.168-.759.3-1.522.415-2.285,3.71,1.61,7.322,7.138,7.322,11.539a.86.86,0,0,0,.86.86h4.91a10.891,10.891,0,1,0,10.855-11.752Zm-39.269,10.892a9.15,9.15,0,0,1,.867-3.883,1.991,1.991,0,0,1,.279,1.016v7.306A9.117,9.117,0,0,1,699.028,1060.465Zm5.446,9.172h-2.58V1057.6a3.723,3.723,0,0,0-1.742-3.148l-.016-.012-.022-.011a3.719,3.719,0,0,0-5.672,3.171v12.039h-2.58V1057.6a6.306,6.306,0,0,1,12.612,0Zm12.9-9.172a9.168,9.168,0,0,1-11.179,8.949V1057.6a7.992,7.992,0,0,0-2.052-5.353,9.129,9.129,0,0,1,7.8-.153,16.975,16.975,0,0,1-4.342,7.758.86.86,0,1,0,1.2,1.228,18.43,18.43,0,0,0,4.678-8.107A9.166,9.166,0,0,1,717.372,1060.465Zm18.94-.86h-7.147a9.135,9.135,0,0,1,2.264-5.211Zm-11.12,0,3.109-8.55,1.947,2.078a10.852,10.852,0,0,0-2.807,6.472Zm13.1,10.032a9.184,9.184,0,0,1-9.131-8.312H738.3a.86.86,0,0,0,.627-1.448l-6.24-6.66a9.17,9.17,0,1,1,5.612,16.42Z" transform="translate(0 -512.311)" fill="#42413f"/>
    </g>
  </g>
</svg>
