<svg xmlns="http://www.w3.org/2000/svg" xmlns:xlink="http://www.w3.org/1999/xlink" width="111.5" height="75" viewBox="0 0 111.5 75">
  <defs>
    <clipPath id="clip-cctv">
      <rect width="111.5" height="75"/>
    </clipPath>
  </defs>
  <g id="cctv" clip-path="url(#clip-cctv)">
    <g id="casino-cctv" transform="translate(22.203 -35.1)">
      <path id="Path_386" data-name="Path 386" d="M71.422,66.578c-.028-.653-.392-1.863-2.508-2.633l-56.4-20.508a5.587,5.587,0,0,0-7.152,3.335L3.834,50.967h0L.4,60.4a5.587,5.587,0,0,0,3.335,7.152l16.438,5.976a6.654,6.654,0,0,0,1.343,5.213l-3.5,9.62a1.129,1.129,0,0,1-1.058.74H6.7V85.759a3.352,3.352,0,0,0-3.348-3.348H1.116A1.116,1.116,0,0,0,0,83.527v17.856A1.116,1.116,0,0,0,1.116,102.5H3.348A3.352,3.352,0,0,0,6.7,99.151V95.8H16.955a7.845,7.845,0,0,0,7.35-5.147l3.428-9.418a6.648,6.648,0,0,0,4.8-3.21l19.21,6.984a5.579,5.579,0,0,0,6.665-2.325l2.2.8a2.23,2.23,0,0,0,2.859-1.333l3.055-8.393a2.233,2.233,0,0,0-.953-2.677l3.578-1.668C71.194,68.468,71.45,67.231,71.422,66.578ZM4.464,99.151a1.117,1.117,0,0,1-1.116,1.116H2.232V84.643H3.348a1.117,1.117,0,0,1,1.116,1.116Zm17.744-9.258a5.606,5.606,0,0,1-5.253,3.678H6.7V91.339H16.955a3.368,3.368,0,0,0,3.155-2.209l3.2-8.8a6.826,6.826,0,0,0,2.076.821Zm4.73-10.827c-.026,0-.051,0-.077,0a4.527,4.527,0,0,1-3.208-1.279,1.089,1.089,0,0,0-.135-.137,4.433,4.433,0,0,1-1.192-3.334l8.057,2.929A4.427,4.427,0,0,1,26.938,79.066ZM64.431,73l-3.053,8.392-2.1-.764,2.9-7.955.593-.276Zm3.779-5.6-5.966,2.782h0l-1.429.666h0l-1.675.781a11.29,11.29,0,0,1-7.388.322L19.468,60.22a1.116,1.116,0,0,0-.762,2.1L50.987,74.047a11.765,11.765,0,0,0,3.921.608,13.612,13.612,0,0,0,4.427-.7L56.8,80.913a3.352,3.352,0,0,1-4.292,2L4.5,65.46a3.352,3.352,0,0,1-2-4.291l1.909-5.246a5.551,5.551,0,0,0,2.763,2.2l1.049.382a1.116,1.116,0,0,0,.763-2.1l-1.049-.382a3.352,3.352,0,0,1-2-4.291l.382-1.049h0l1.145-3.146a3.352,3.352,0,0,1,4.292-2l56.4,20.508a2.029,2.029,0,0,1,1.035.633A2.028,2.028,0,0,1,68.21,67.4Z" transform="translate(0 0)" fill="#383838"/>
      <path id="Path_387" data-name="Path 387" d="M87.305,149.75l-2.1-.764a1.116,1.116,0,0,0-.763,2.1l2.1.764a1.116,1.116,0,0,0,.763-2.1Z" transform="translate(-72.032 -91.057)" fill="#383838"/>
    </g>
  </g>
</svg>
