<svg xmlns="http://www.w3.org/2000/svg" xmlns:xlink="http://www.w3.org/1999/xlink" width="111.5" height="75" viewBox="0 0 111.5 75">
  <defs>
    <clipPath id="clip-kitchen">
      <rect width="111.5" height="75"/>
    </clipPath>
  </defs>
  <g id="kitchen" clip-path="url(#clip-kitchen)">
    <g id="Group_268" data-name="Group 268" transform="translate(610 -4005.426)">
      <path id="Path_29" data-name="Path 29" d="M79.062,229.8h-25.1v-2.51h1.255a1.255,1.255,0,1,0,0-2.51H53.963V223.53a5.02,5.02,0,1,1,10.04,0,1.255,1.255,0,0,0,2.51,0,7.53,7.53,0,1,0-15.059,0V229.8H30.4a3.741,3.741,0,0,0,.979-2.51v-7.53a1.255,1.255,0,0,0-1.255-1.255H11.295a1.255,1.255,0,0,0-1.255,1.255v7.53a3.741,3.741,0,0,0,.979,2.51H1.255A1.255,1.255,0,0,0,0,231.059v30.119a1.255,1.255,0,0,0,1.255,1.255H79.062a1.255,1.255,0,0,0,1.255-1.255V231.059A1.255,1.255,0,0,0,79.062,229.8ZM12.55,221.02H28.864v6.275a1.255,1.255,0,0,1-1.255,1.255H13.8a1.255,1.255,0,0,1-1.255-1.255Zm7.53,38.9H2.51V244.864H20.079Zm0-17.569H2.51v-10.04H6.275a1.255,1.255,0,0,0,1.255,1.255h7.53a1.255,1.255,0,0,0,1.255-1.255h3.765Zm37.649,17.569H22.589V232.314H57.728Zm20.079,0H60.238V244.864H77.807Zm0-17.569H60.238v-10.04H64a1.255,1.255,0,0,0,1.255,1.255h7.53a1.255,1.255,0,0,0,1.255-1.255h3.765Z" transform="translate(-594.9 3809.984)" fill="#525252"/>
      <path id="Path_30" data-name="Path 30" d="M153.255,359.06h30.119a1.255,1.255,0,0,0,1.255-1.255v-12.55A1.255,1.255,0,0,0,183.374,344H153.255A1.255,1.255,0,0,0,152,345.255V357.8A1.255,1.255,0,0,0,153.255,359.06Zm1.255-12.55h27.609v10.04H154.51Z" transform="translate(-723.056 3702.063)" fill="#525252"/>
      <path id="Path_31" data-name="Path 31" d="M216.314,464H201.255a1.255,1.255,0,0,0,0,2.51h15.059a1.255,1.255,0,0,0,0-2.51Z" transform="translate(-763.526 3600.888)" fill="#525252"/>
      <path id="Path_35" data-name="Path 35" d="M81.757,145.663A3.514,3.514,0,0,0,80,148.55a1.255,1.255,0,0,0,2.51,0c0-.265.125-.4.753-.878a3.249,3.249,0,0,0,0-5.773c-.634-.476-.753-.615-.753-.878s.125-.4.753-.878a3.514,3.514,0,0,0,1.757-2.886,1.255,1.255,0,1,0-2.51,0c0,.262-.125.4-.753.878a3.249,3.249,0,0,0,0,5.773c.627.476.753.615.753.878S82.384,145.186,81.757,145.663Z" transform="translate(-662.35 3877.434)" fill="#525252"/>
      <path id="Path_36" data-name="Path 36" d="M123.263,140.141a3.514,3.514,0,0,0,1.757-2.886,1.255,1.255,0,1,0-2.51,0c0,.262-.126.4-.753.878a3.249,3.249,0,0,0,0,5.773c.627.476.753.615.753.878s-.126.4-.753.878A3.514,3.514,0,0,0,120,148.55a1.255,1.255,0,0,0,2.51,0c0-.265.125-.4.753-.878a3.249,3.249,0,0,0,0-5.773c-.627-.476-.753-.615-.753-.878S122.635,140.614,123.263,140.141Z" transform="translate(-696.076 3877.434)" fill="#525252"/>
      <path id="Path_37" data-name="Path 37" d="M163.263,140.141a3.514,3.514,0,0,0,1.757-2.886,1.255,1.255,0,1,0-2.51,0c0,.262-.125.4-.753.878a3.249,3.249,0,0,0,0,5.773c.627.476.753.615.753.878s-.125.4-.753.878A3.514,3.514,0,0,0,160,148.55a1.255,1.255,0,0,0,2.51,0c0-.265.126-.4.753-.878a3.249,3.249,0,0,0,0-5.773c-.627-.476-.753-.615-.753-.878S162.635,140.614,163.263,140.141Z" transform="translate(-729.801 3877.434)" fill="#525252"/>
    </g>
  </g>
</svg>
