<svg xmlns="http://www.w3.org/2000/svg" xmlns:xlink="http://www.w3.org/1999/xlink" width="111.5" height="75" viewBox="0 0 111.5 75">
  <defs>
    <clipPath id="clip-lUcOqmvZU03MFAvKjUSHLyjNaTcn2A">
      <rect width="111.5" height="75"/>
    </clipPath>
  </defs>
  <g id="lUcOqmvZU03MFAvKjUSHLyjNaTcn2A" clip-path="url(#clip-lUcOqmvZU03MFAvKjUSHLyjNaTcn2A)">
    <g id="fridge" transform="translate(9.88 6.885)">
      <path id="Path_62" data-name="Path 62" d="M62.324,20.571V3.333A3.224,3.224,0,0,0,59.1.115H30.8a3.224,3.224,0,0,0-3.22,3.218V20.571a3.208,3.208,0,0,0,1.065,2.385,3.208,3.208,0,0,0-1.065,2.385V54.5a3.224,3.224,0,0,0,3.22,3.22h.438v2.562a.835.835,0,0,0,.835.835h5.961a.835.835,0,0,0,.836-.835V57.719H51.035v2.562a.835.835,0,0,0,.835.835h5.963a.835.835,0,0,0,.835-.835V57.719H59.1a3.224,3.224,0,0,0,3.22-3.22V25.341a3.208,3.208,0,0,0-1.065-2.385,3.208,3.208,0,0,0,1.065-2.385ZM37.2,59.446H32.91V57.719H37.2Zm19.8,0H52.705V57.719H57Zm3.657-34.105V54.5a1.552,1.552,0,0,1-1.55,1.55H30.8a1.552,1.552,0,0,1-1.55-1.55V25.341a1.552,1.552,0,0,1,1.55-1.55H59.1a1.552,1.552,0,0,1,1.55,1.55ZM30.8,22.121a1.552,1.552,0,0,1-1.55-1.55V3.333A1.552,1.552,0,0,1,30.8,1.784H59.1a1.552,1.552,0,0,1,1.55,1.549V20.571a1.552,1.552,0,0,1-1.55,1.55Z" fill="#383838"/>
      <path id="Path_63" data-name="Path 63" d="M84.343,12.682h-3.1a.835.835,0,0,0-.835.837V23.534a.835.835,0,0,0,.835.835h3.1a.835.835,0,0,0,.835-.835V13.519a.835.835,0,0,0-.835-.835ZM83.508,22.7H82.077V14.351h1.431Z" transform="translate(-27.628 -6.573)" fill="#383838"/>
      <path id="Path_64" data-name="Path 64" d="M81.243,67.944h3.1a.835.835,0,0,0,.835-.835V57.093a.835.835,0,0,0-.835-.835h-3.1a.835.835,0,0,0-.835.835V67.11A.835.835,0,0,0,81.243,67.944Zm.835-10.017h1.431v8.348H82.077Z" transform="translate(-27.628 -29.363)" fill="#383838"/>
    </g>
  </g>
</svg>
