<svg xmlns="http://www.w3.org/2000/svg" xmlns:xlink="http://www.w3.org/1999/xlink" width="111.5" height="75" viewBox="0 0 111.5 75">
  <defs>
    <clipPath id="clip-gas-included">
      <rect width="111.5" height="75"/>
    </clipPath>
  </defs>
  <g id="gas-included" clip-path="url(#clip-gas-included)">
    <g id="gascooker" transform="translate(-3.31 -4.563)">
      <path id="Path_702" data-name="Path 702" d="M103.361,42.311H99.523V38.6a2.92,2.92,0,0,0-2.957-2.874h-14.2V34.8a1.4,1.4,0,0,0-2.781,0v.927H65.374A2.92,2.92,0,0,0,62.426,38.6v3.708H58.718V38.6a2.92,2.92,0,0,0-2.948-2.874H41.616V34.8a1.4,1.4,0,0,0-2.781,0v.927H24.624A2.92,2.92,0,0,0,21.667,38.6v3.708H16.022a3.856,3.856,0,0,0-3.912,3.8V61.546a3.856,3.856,0,0,0,3.912,3.791H18.2V68.6a3.4,3.4,0,0,0,3.448,3.374H80.6a1.353,1.353,0,1,0,0-2.707H21.649a.649.649,0,0,1-.658-.649V65.337h77.3V68.6a.658.658,0,0,1-.667.649H86.166a1.363,1.363,0,0,0,0,2.725H97.66a3.411,3.411,0,0,0,3.458-3.356V65.337h2.28a3.856,3.856,0,0,0,3.912-3.791V46.1a3.865,3.865,0,0,0-3.949-3.791Zm-6.795-3.9a.167.167,0,0,1,.167.167v3.708H82.365V38.4ZM65.207,38.6a.167.167,0,0,1,.167-.167h14.2v3.875H65.207Zm-9.39-.167a.167.167,0,0,1,.158.167v3.708H41.616V38.4ZM104.483,61.61a1.1,1.1,0,0,1-1.122,1.085H16.022A1.1,1.1,0,0,1,14.9,61.61V46.1a1.1,1.1,0,0,1,1.122-1.085H29.25a1.363,1.363,0,1,0,0-2.716H24.457V38.6a.167.167,0,0,1,.167-.167h14.2v3.875h-4a1.363,1.363,0,1,0,0,2.716h68.531a1.1,1.1,0,0,1,1.122,1.085Z" fill="#383838"/>
      <path id="Path_703" data-name="Path 703" d="M29.8,49.4a5.562,5.562,0,1,0,5.747,5.562A5.673,5.673,0,0,0,29.8,49.4Zm0,8.454a2.874,2.874,0,1,1,2.957-2.874A2.92,2.92,0,0,1,29.8,57.854Z" transform="translate(-0.899 -1.156)" fill="#383838"/>
      <path id="Path_704" data-name="Path 704" d="M51.946,49.4a5.562,5.562,0,1,0,5.738,5.562A5.673,5.673,0,0,0,51.946,49.4Zm0,8.454a2.874,2.874,0,1,1,2.948-2.874,2.92,2.92,0,0,1-2.948,2.874Z" transform="translate(-2.516 -1.156)" fill="#383838"/>
      <path id="Path_705" data-name="Path 705" d="M74.086,49.4a5.562,5.562,0,1,0,5.747,5.562A5.664,5.664,0,0,0,74.086,49.4Zm0,8.454a2.874,2.874,0,1,1,2.957-2.874A2.92,2.92,0,0,1,74.086,57.854Z" transform="translate(-4.133 -1.156)" fill="#383838"/>
      <path id="Path_706" data-name="Path 706" d="M96.226,49.4a5.562,5.562,0,1,0,5.747,5.562A5.673,5.673,0,0,0,96.226,49.4Zm0,8.454a2.874,2.874,0,1,1,2.957-2.874,2.92,2.92,0,0,1-2.957,2.874Z" transform="translate(-5.75 -1.156)" fill="#383838"/>
    </g>
  </g>
</svg>
