<svg xmlns="http://www.w3.org/2000/svg" xmlns:xlink="http://www.w3.org/1999/xlink" width="111.5" height="75" viewBox="0 0 111.5 75">
  <defs>
    <clipPath id="clip-house-keeping">
      <rect width="111.5" height="75"/>
    </clipPath>
  </defs>
  <g id="house-keeping" clip-path="url(#clip-house-keeping)">
    <g id="Layer_2" data-name="Layer 2" transform="translate(23.16 10.538)">
      <g id="Layer_1" data-name="Layer 1" transform="translate(-0.005 0.002)">
        <path id="Path_753" data-name="Path 753" d="M10.772,39.763a2.008,2.008,0,0,1-2.216,2.155,1.936,1.936,0,0,1-1.988-2.124,1.964,1.964,0,0,1,2.216-2.115A1.944,1.944,0,0,1,10.772,39.763Z" transform="translate(-3.684 -21.177)" fill="#383838"/>
        <path id="Path_754" data-name="Path 754" d="M37.092,54.328a33.464,33.464,0,0,0-3.692.035c-1.568.171-2.216-.438-2.715-1.936C26.042,38.44,21.3,24.482,16.587,10.512c-1.06-3.144-2.1-6.3-3.175-9.447C13.2.439,12.851-.2,12.019.062s-.819.924-.635,1.607c.162.556.359,1.1.543,1.651,2.869,8.5,5.676,17,8.61,25.458.587,1.682.14,1.936-1.423,1.918-5.65-.066-11.3,0-16.953-.044C.637,30.657-.046,31.1,0,32.764c.109,4.2.031,8.4.048,12.6,0,.618-.263,1.572.547,1.686,1.59.223,1.362,1.445,1.528,2.4.293,1.712.473,3.442.674,5.168a1.825,1.825,0,0,0,2.159,1.839c3.258-.066,6.521,0,9.779,0,5.317,0,5.308,0,6.079-5.255.109-.723-.136-1.511.876-2.006,3.42-1.677,4.191-3.942,2.137-7.13-1.353-2.111-2.019-4.09-.876-6.771,2.01,6.009,3.942,11.886,5.96,17.746.368,1.064.026,1.261-.928,1.235-1.375-.039-2.75-.026-4.13,0-.692,0-1.577-.153-1.607.942s.841,1.209,1.66,1.213c2.19.022,4.344,0,6.517,0h6.74c.758,0,1.528-.2,1.524-1.152C38.668,54.206,37.827,54.306,37.092,54.328ZM2.647,44.5c-1.314-1.042-.2-3.762-.438-5.282V38.1c0-5.89.083-5.943,6.131-5.282.937.105,1.231.438,1.222,1.34-.031,2.671-.044,5.347,0,8.019,0,.876-.245,1.371-1.143,1.45a1.4,1.4,0,0,0-.21.061C6.286,44.041,3.663,45.3,2.647,44.5Zm17.715-9.376c-.123.486-.21.981-.394,1.848-.784-1.06-1.314-1.813-1.883-2.553a1.093,1.093,0,0,0-1.677-.363c-.644.486-.539,1.121-.171,1.752a2.067,2.067,0,0,0,.4.5c2.869,2.509,3.333,5.6,2.544,9.2a64.173,64.173,0,0,0-.92,7.524c-.1,1.012-.363,1.59-1.542,1.572-3.469-.053-6.941-.035-10.41,0-.955,0-1.454-.25-1.515-1.314a15.276,15.276,0,0,0-.561-4.064c-.718-2.093.438-2.352,2.006-2.685,6.46-1.388,5.352,0,5.461-6.543.031-1.879.053-3.762,0-5.636-.057-1.117.276-1.581,1.432-1.511a36.187,36.187,0,0,0,5.2,0C20.283,32.619,20.809,33.372,20.362,35.124Zm.972,12.284a7.368,7.368,0,0,1,.526-3.942C22.714,44.886,22.963,46.029,21.334,47.409Z" transform="translate(0.005 -0.002)" fill="#383838"/>
        <path id="Path_755" data-name="Path 755" d="M24.029,45.365a3.723,3.723,0,0,0-3.6,3.779,3.836,3.836,0,0,0,3.775,3.67,3.942,3.942,0,0,0,3.749-3.74,3.758,3.758,0,0,0-3.924-3.709Zm0,5.277a1.431,1.431,0,0,1-1.423-1.752,1.407,1.407,0,0,1,1.6-1.393c1.047,0,1.524.657,1.581,1.651a1.549,1.549,0,0,1-1.756,1.493Z" transform="translate(-11.48 -25.496)" fill="#383838"/>
        <path id="Path_756" data-name="Path 756" d="M7.882,53.9a3.031,3.031,0,0,0-2.943,3.109A2.8,2.8,0,0,0,7.812,59.9a3.066,3.066,0,0,0,3.136-2.921A3.236,3.236,0,0,0,7.882,53.9Zm-.044,3.806c-.569-.031-.74-.381-.7-.876a.688.688,0,0,1,.7-.674.771.771,0,0,1,.836.8c.009.517-.333.753-.841.749Z" transform="translate(-2.773 -30.295)" fill="#383838"/>
      </g>
    </g>
  </g>
</svg>
