<svg xmlns="http://www.w3.org/2000/svg" xmlns:xlink="http://www.w3.org/1999/xlink" width="111.5" height="75" viewBox="0 0 111.5 75">
  <defs>
    <clipPath id="clip-tv-license">
      <rect width="111.5" height="75"/>
    </clipPath>
  </defs>
  <g id="tv-license" clip-path="url(#clip-tv-license)">
    <g id="Group_47" data-name="Group 47" transform="translate(-616.771 -591.8)">
      <path id="Path_76" data-name="Path 76" d="M651.414,613.345h14.235a4.083,4.083,0,0,1,2.164-3.19l-5.737-5.786a2.286,2.286,0,1,1,1.1-1.094l6.149,6.2a8.538,8.538,0,0,1,5,0l6.149-6.2a2.29,2.29,0,1,1,1.1,1.094l-5.737,5.786a4.084,4.084,0,0,1,2.163,3.19h14.235a5.633,5.633,0,0,1,5.62,5.62v30.2a5.633,5.633,0,0,1-5.62,5.62H651.414a5.633,5.633,0,0,1-5.62-5.62v-30.2A5.633,5.633,0,0,1,651.414,613.345Zm40.829,2.6H651.414a3.035,3.035,0,0,0-3.025,3.025v30.2a3.035,3.035,0,0,0,3.025,3.025h40.829a3.035,3.035,0,0,0,3.025-3.025v-30.2a3.035,3.035,0,0,0-3.025-3.025Z" fill="#383838"/>
      <path id="Path_77" data-name="Path 77" d="M727.029,1360.11h7.328v2.932h-7.328Z" transform="translate(-75.264 -704.242)" fill="#383838" fill-rule="evenodd"/>
      <path id="Path_78" data-name="Path 78" d="M1173.26,1360.11h7.328v2.932h-7.328Z" transform="translate(-488.693 -704.242)" fill="#383838" fill-rule="evenodd"/>
      <path id="Path_79" data-name="Path 79" d="M742.771,855.431H772.9a4.278,4.278,0,0,1,2.93,1.143,3.76,3.76,0,0,1,1.217,2.746v20.89a3.76,3.76,0,0,1-1.217,2.746,4.278,4.278,0,0,1-2.93,1.143H742.771a4.278,4.278,0,0,1-2.93-1.143,3.759,3.759,0,0,1-1.217-2.746V859.318a3.759,3.759,0,0,1,1.217-2.746,4.277,4.277,0,0,1,2.93-1.143Zm30.129,1.8H742.771a2.3,2.3,0,0,0-1.574.615,2.021,2.021,0,0,0-.656,1.479v20.89a2.021,2.021,0,0,0,.656,1.479,2.3,2.3,0,0,0,1.574.615H772.9a2.3,2.3,0,0,0,1.574-.615,2.021,2.021,0,0,0,.656-1.479V859.318a2.02,2.02,0,0,0-.656-1.479,2.3,2.3,0,0,0-1.574-.615Z" transform="translate(-86.007 -236.656)" fill="#383838"/>
      <path id="Path_80" data-name="Path 80" d="M768,1256.87a1.466,1.466,0,1,1-1.466,1.466A1.466,1.466,0,0,1,768,1256.87Z" transform="translate(-111.869 -608.588)" fill="#383838" fill-rule="evenodd"/>
      <path id="Path_81" data-name="Path 81" d="M830.327,1256.87a1.466,1.466,0,1,1-1.466,1.466,1.466,1.466,0,0,1,1.466-1.466Z" transform="translate(-169.611 -608.588)" fill="#383838" fill-rule="evenodd"/>
      <path id="Path_82" data-name="Path 82" d="M892.648,1256.87a1.466,1.466,0,1,1-1.466,1.466A1.466,1.466,0,0,1,892.648,1256.87Z" transform="translate(-227.353 -608.589)" fill="#383838" fill-rule="evenodd"/>
    </g>
  </g>
</svg>
