<svg xmlns="http://www.w3.org/2000/svg" xmlns:xlink="http://www.w3.org/1999/xlink" width="111.5" height="75" viewBox="0 0 111.5 75">
  <defs>
    <clipPath id="clip-water-included">
      <rect width="111.5" height="75"/>
    </clipPath>
  </defs>
  <g id="water-included" clip-path="url(#clip-water-included)">
    <g id="Layer_2" data-name="Layer 2" transform="translate(28.847 8.5)">
      <g id="Layer_1" data-name="Layer 1" transform="translate(0)">
        <path id="Path_1096" data-name="Path 1096" d="M59.9,17.706c-.058-6.71.966-5.643-5.865-5.8-1.787-.043-2.551.565-2.275,2.338.222,1.415-.44,1.749-1.749,1.705a48.218,48.218,0,0,0-7.657.039c-2.9.357-4.435-.589-4.918-3.478-.227-1.367-.729-2.71-2.609-2.416-1.391.217-1.715-.43-1.739-1.744,0-1.449.531-1.787,1.831-1.71a42.736,42.736,0,0,0,4.309,0c2.309-.1,3.865-1.56,3.8-3.459S41.431.048,39.228,0H30.363c-3.034,0-6.068,0-9.106.024-2.3.029-3.662,1.246-3.71,3.184s1.319,3.29,3.527,3.425c1.275.077,2.556.043,3.831,0,1.1-.029,2.015-.1,1.932,1.536-.053,1.314-.145,2.188-1.778,1.932a1.849,1.849,0,0,0-2.3,1.449c-1.541,4.348-1.6,4.348-6.28,4.348-.72,0-1.449-.029-2.155,0a14.494,14.494,0,0,0-11.5,5.841C-.691,26.44.024,31.885.13,37.2c0,.937.8,1.232,1.729,1.222q5.391-.053,10.783,0c1.232,0,1.749-.483,1.705-1.705s-.024-2.416,0-3.594c.039-1.652,1.309-2,2.565-2.367,1.348-.391,1.783.425,2.188,1.488a8.778,8.778,0,0,0,2.672,3.614C27.537,40.58,36.957,38.87,40.74,32.4c.483-.841.662-1.981,2.106-1.932,2.416.087,4.788.029,7.184,0,.792,0,1.527.116,1.415,1.121-.3,2.826,1.367,3.145,3.556,2.937a13.232,13.232,0,0,1,2.415,0c1.85.174,2.565-.57,2.527-2.469C59.832,27.285,59.928,22.493,59.9,17.706ZM21.256,4.251c-.7,0-1.614.053-1.594-.966s.961-.87,1.647-.87H38.783c.633,0,1.449-.058,1.478.8.063,1.01-.8,1.053-1.527,1.053Q30,4.271,21.256,4.251Zm8.575,5.763c-1.15-.188-.609-1.256-.672-1.932-.053-.56-.232-1.449.768-1.367,1.309.1.57,1.208.812,1.816C30.6,9.179,31.029,10.213,29.831,10.015ZM19.411,23.624a16.938,16.938,0,0,0-.57,2.068c-.256,1.647-.831,2.575-2.807,2.768a4.116,4.116,0,0,0-4,4.522c.2,2.57-.705,3.411-3.126,3a10.209,10.209,0,0,0-1.676,0c-4.86,0-4.86,0-4.831-4.778C2.4,23,7.087,18.343,15.329,18.324,20.933,18.3,20.933,18.3,19.411,23.624ZM36.257,34.3a13.136,13.136,0,0,1-6.391,1.691,9.682,9.682,0,0,1-6.7-2.1c-2.019-1.8-3.087-3.937-2.145-6.836,1.358-4.164,2.623-8.362,3.725-12.6.43-1.667,1.174-2.15,2.8-2.024a50.624,50.624,0,0,0,5.744,0c1.184-.043,1.855.2,2.217,1.517,1.174,4.3,2.551,8.546,3.783,12.831C40.232,30.116,39.223,32.5,36.257,34.3ZM51.74,24.57c.034.483-.053.966,0,1.449.251,1.652-.386,2.242-2.077,2.126-2.454-.169-5.4.7-7.247-.391s-1.623-4.4-2.387-6.7c-.855-2.57-.8-2.589,1.971-2.594h3.937c1.609.188,4.15-.855,5.4.391S51.609,22.6,51.74,24.57Zm5.86,6.106c0,1.449-.672,1.483-1.749,1.483s-1.807-.043-1.739-1.478c.111-2.469.029-4.942.029-7.416s.082-4.942-.029-7.411c-.063-1.449.647-1.488,1.734-1.483s1.778.048,1.754,1.478Q57.489,23.266,57.6,30.677Z" transform="translate(0)" fill="#383838"/>
        <path id="Path_1097" data-name="Path 1097" d="M10.7,89.2c-1-1.691-1.86-1.609-2.807.222a52.528,52.528,0,0,0-3.073,7.5c-.681,2.039-.483,3.8,1.116,5.222a4.744,4.744,0,0,0,5.314.889,5.183,5.183,0,0,0,3.232-4.928A28.726,28.726,0,0,0,10.7,89.2Zm.184,11.594a2.744,2.744,0,0,1-3.13-.116,2.381,2.381,0,0,1-.744-2.961,33.334,33.334,0,0,1,2.372-5.8,14.678,14.678,0,0,1,2.845,5.855,2.531,2.531,0,0,1-1.343,3.019Z" transform="translate(-2.302 -45.483)" fill="#383838"/>
      </g>
    </g>
  </g>
</svg>
