<svg xmlns="http://www.w3.org/2000/svg" xmlns:xlink="http://www.w3.org/1999/xlink" width="111.5" height="75" viewBox="0 0 111.5 75">
  <defs>
    <clipPath id="clip-electricity-included">
      <rect width="111.5" height="75"/>
    </clipPath>
  </defs>
  <g id="electricity-included" clip-path="url(#clip-electricity-included)">
    <g id="Electric_Plug" data-name="Electric Plug" transform="translate(25 7)">
      <path id="Path_388" data-name="Path 388" d="M44.419,27.2a.983.983,0,0,0-.836-.462H32.767V11.983a.983.983,0,0,0-1.858-.442l-11.8,23.6a.983.983,0,0,0,.875,1.426H30.8v14.75a.983.983,0,0,0,.757.954.893.893,0,0,0,.226.029.983.983,0,0,0,.875-.541l11.8-23.6a.99.99,0,0,0-.039-.964ZM32.767,47.147V35.583a.983.983,0,0,0-.983-.983H21.576L30.8,16.153V27.717a.983.983,0,0,0,.983.983H41.99Z" transform="translate(-0.283 -0.15)" fill="#383838"/>
      <path id="Path_389" data-name="Path 389" d="M55.813,14.387a4.9,4.9,0,0,0-.364-6.51L52.667,5.095a1.007,1.007,0,0,0-1.387,0l-.7.7L47.8,3.01,46.413,4.4,49.2,7.179l-1.4,1.4L45.016,5.793,43.63,7.179l2.783,2.783-.7.7a.983.983,0,0,0,0,1.386L48.5,14.83a4.854,4.854,0,0,0,5.8.826,27.217,27.217,0,0,1,5.044,15.861A27.558,27.558,0,0,1,21.367,57l-.747,1.819A29.525,29.525,0,0,0,61.31,31.517a29.174,29.174,0,0,0-5.5-17.13Zm-1.75-.944a2.979,2.979,0,0,1-4.179,0L47.8,11.349l4.179-4.169,2.085,2.085a2.962,2.962,0,0,1,0,4.179Z" transform="translate(-0.31 -0.017)" fill="#383838"/>
      <path id="Path_390" data-name="Path 390" d="M31.5,2A29.536,29.536,0,0,0,2,31.5,29.174,29.174,0,0,0,7.5,48.63a4.9,4.9,0,0,0,.364,6.51l2.783,2.783a.951.951,0,0,0,.688.285.974.974,0,0,0,.7-.285l.7-.7,2.783,2.783L16.9,58.62l-2.783-2.783,1.4-1.4,2.783,2.783,1.386-1.386L16.9,53.055l.7-.7a.983.983,0,0,0,0-1.386l-2.783-2.783a4.9,4.9,0,0,0-5.8-.826A27.217,27.217,0,0,1,3.967,31.5,27.564,27.564,0,0,1,31.5,3.967,27.271,27.271,0,0,1,41.943,6.022l.747-1.829A29.431,29.431,0,0,0,31.5,2ZM9.247,49.574a2.979,2.979,0,0,1,4.179,0l2.085,2.094-4.179,4.169L9.247,53.753A2.962,2.962,0,0,1,9.247,49.574Z" transform="translate(0 0)" fill="#383838"/>
    </g>
  </g>
</svg>
