<svg xmlns="http://www.w3.org/2000/svg" xmlns:xlink="http://www.w3.org/1999/xlink" width="111.5" height="75" viewBox="0 0 111.5 75">
  <defs>
    <clipPath id="clip-laundry-room">
      <rect width="111.5" height="75"/>
    </clipPath>
  </defs>
  <g id="laundry-room" clip-path="url(#clip-laundry-room)">
    <g id="Layer_2" data-name="Layer 2" transform="translate(24.519 8.505)">
      <g id="Layer_1" data-name="Layer 1" transform="translate(0.013 -0.005)">
        <path id="Path_827" data-name="Path 827" d="M57.823.034q-16.667-.078-33.335,0c-3.153,0-4.078,1.034-4.093,4.212v34.1c0,2.517-1.7,3.773-4.171,3.1-.734-.207-1.421-.574-2.134-.848a6.584,6.584,0,0,0-5.452.119C4.5,42.682,4.5,42.661,2.952,38.5c-.362-.977-.6-2.181-2.047-1.706-1.246.419-.9,1.385-.656,2.341,1.251,4.61,2.4,9.246,3.706,13.835,1,3.5,2.936,4.951,6.507,5,4.274.062,8.548,0,12.822.031a5.946,5.946,0,0,0,5.6-2.967c.734-1.359,1.623-1.457,2.868-1.452q12.7.031,25.391,0c4.062,0,5.054-.941,5.08-4.9q.124-21.913.222-43.831C62.464,1.093,61.534.049,57.823.034Zm-12.667,3.2c.284-1.432,1.69-.6,2.584-.693,1.437-.14,2.9-.036,4.352-.036h0c1.959,0,3.923.047,5.887,0s1.861,1.163,1.876,2.532-.078,2.295-1.866,2.212c-2.724-.129-5.458,0-8.192-.047a4.827,4.827,0,0,1-3.1-.889A3.261,3.261,0,0,1,45.156,3.233ZM29.181,2.881c3.757,0,7.515.036,11.272,0,1.261,0,1.876.129,2.134,1.674.6,3.618,2.93,5.4,6.631,5.442,2.9.031,5.809-.031,8.708.031.646,0,1.824-.517,1.855.61.041,1.364-1.261.8-1.969.8-5.468.052-10.931,0-16.4,0-5.38,0-10.76-.093-16.135.052-1.99.057-2.4-.574-2.372-2.445C22.979,2.881,22.906,2.881,29.181,2.881Zm-.9,45.956c-1.7,6.579-1.7,6.579-8.357,6.579h-3.07c-1.964,0-3.928-.047-5.887,0a4.066,4.066,0,0,1-4.424-3.4,17.9,17.9,0,0,1-.517-1.974c-.295-1.855-1.861-5.034-.961-5.261,2.9-.734,5.685-3.587,9.137-1.22a4.961,4.961,0,0,0,5.6,0c2.067-1.339,3.85-1.121,5.954-.124C29.232,45.09,29.284,44.961,28.281,48.837ZM58.567,50.9a9.53,9.53,0,0,1-1.277.036H32.736c-.641,0-1.83.517-1.866-.553-.047-1.287,1.235-.853,1.99-.858,4.176-.041,8.357,0,12.533,0H58.438c.45,0,1.158-.279,1.287.382C59.88,50.646,59.161,50.816,58.567,50.9ZM29.041,29.973a12.7,12.7,0,1,1,3.715,8.993,12.7,12.7,0,0,1-3.715-8.993ZM59.957,45.524c0,.853-.062,1.488-1.2,1.483H31.708c.372-1.55.682-2.863,1.034-4.326,5.974,3.68,11.768,3.675,17.484-.041a15.2,15.2,0,0,0,5.5-18.352,15.479,15.479,0,0,0-16.471-9.365,15.288,15.288,0,0,0-9.763,24.549c.439.563,1.38,1.2.8,1.943s-1.612.388-2.388.041a16.657,16.657,0,0,0-4.253-1.706c-.93-.14-.687-.842-.687-1.38,0-7.6.062-15.2.057-22.812,0-1.153.295-1.711,1.55-1.706q16.916.036,33.836,0c1.287,0,1.55.543,1.55,1.69Z" transform="translate(-0.013 0.005)" fill="#383838"/>
        <path id="Path_828" data-name="Path 828" d="M70.763,37.34A10.693,10.693,0,1,0,81.456,48.018,10.693,10.693,0,0,0,70.763,37.34Zm-4.491,4.651a7.4,7.4,0,0,1,7.752-.972,7.155,7.155,0,0,1,4.558,5.866c-3.308-1.654-6-1.494-8.708.207-1.83,1.153-5.8.848-6.114-.517-.481-1.979,1.044-3.406,2.512-4.564Zm10.3,11.51a7.192,7.192,0,0,1-7.711,2,7.583,7.583,0,0,1-5.241-5.933,8.532,8.532,0,0,0,8.512-.76,4.367,4.367,0,0,1,1.153-.517c1.964-.579,4.1-.217,5.075,1.318C79.1,50.788,77.694,52.4,76.572,53.5Z" transform="translate(-29.031 -18.039)" fill="#383838"/>
        <path id="Path_829" data-name="Path 829" d="M68.39,9.9c-1.034-.548-3.478,1.137-3.421-1.37.052-2.129,2.315-.889,3.582-1.163a12.574,12.574,0,0,1,2.295,0c.884,0,1.55.253,1.55,1.251S71.8,9.937,70.9,9.921C70.153,9.885,69.367,9.9,68.39,9.9Z" transform="translate(-31.398 -3.5)" fill="#383838"/>
        <path id="Path_830" data-name="Path 830" d="M68.748,14.311c1,.579,3.463-1.178,3.427,1.349-.031,2.15-2.279.925-3.535,1.184a14.8,14.8,0,0,1-2.3.031c-.9.041-1.55-.3-1.592-1.23s.517-1.37,1.483-1.339C67,14.331,67.771,14.311,68.748,14.311Z" transform="translate(-31.291 -6.881)" fill="#383838"/>
        <path id="Path_831" data-name="Path 831" d="M50.907,7.116a3.26,3.26,0,0,0-3.3,3.251,3.219,3.219,0,0,0,3.478,3.287,3.077,3.077,0,0,0,3.137-3.1A3.277,3.277,0,0,0,50.907,7.116Zm.1,4.073a.91.91,0,0,1-.749-.868c-.031-.517.413-.4.672-.517.517.036.76.3.708.8C51.6,11,51.387,11.261,51.01,11.189Z" transform="translate(-23.005 -3.434)" fill="#383838"/>
      </g>
    </g>
  </g>
</svg>
