<svg xmlns="http://www.w3.org/2000/svg" xmlns:xlink="http://www.w3.org/1999/xlink" width="111.5" height="75" viewBox="0 0 111.5 75">
  <defs>
    <clipPath id="clip-wifi">
      <rect width="111.5" height="75"/>
    </clipPath>
  </defs>
  <g id="wifi" clip-path="url(#clip-wifi)">
    <g id="Layer_2" data-name="Layer 2" transform="translate(12.68 9)">
      <g id="Layer_1" data-name="Layer 1" transform="translate(-0.017)">
        <path id="Path_1100" data-name="Path 1100" d="M42.524,0c16.165.3,30.05,5.567,41.562,16.643,1.241,1.191,3.211,2.406,1.224,4.393-1.853,1.861-3-.176-4.083-1.191C59.762-.444,26.341-.838,4.969,19.678a13.834,13.834,0,0,1-1.249,1.09c-1.023.78-2.113,1.543-3.228.193s-.176-2.348.713-3.228A60.025,60.025,0,0,1,19.449,4.972,62.289,62.289,0,0,1,42.524,0Z" transform="translate(0.017)" fill="#383838"/>
        <path id="Path_1101" data-name="Path 1101" d="M45.642,20.86c11.126.193,20.232,3.521,27.526,11.193,1.048,1.1,2.566,2.2,1.2,3.832-1.618,1.945-2.968.377-4.125-.78C56.961,21.908,39.01,23.191,26.8,31.1A57.855,57.855,0,0,0,21.67,35.29c-1.3,1.073-2.75,2.39-4.276.671s.218-2.733,1.249-3.765A38.749,38.749,0,0,1,45.642,20.86Z" transform="translate(-2.699 -3.37)" fill="#383838"/>
        <path id="Path_1102" data-name="Path 1102" d="M48.881,41.84A23.879,23.879,0,0,1,62.95,47.189c1.2.989,2.641,2.046,1.467,3.739-1.274,1.853-2.591.537-3.848-.344-8.292-5.769-15.243-5.8-23.711-.109-1.367.922-2.876,2.415-4.284.562s.453-2.943,1.677-3.957A26.288,26.288,0,0,1,48.881,41.84Z" transform="translate(-5.167 -6.759)" fill="#383838"/>
        <path id="Path_1103" data-name="Path 1103" d="M54.9,63.733c-.126,2.591-1.736,3.991-3.991,3.9S47.166,66,47.249,63.439s1.526-3.874,3.932-3.79S54.8,61.385,54.9,63.733Z" transform="translate(-7.619 -9.636)" fill="#383838"/>
      </g>
    </g>
  </g>
</svg>
